<svg width="132" height="32" viewBox="0 0 132 32" fill="none" xmlns="http://www.w3.org/2000/svg">
<g clip-path="url(#clip0_122_8313)">
<g clip-path="url(#clip1_122_8313)">
<path d="M17.4817 6.67198L11.4015 0L0 12.6629H12.087L17.4817 6.67198Z" fill="#36BFFA"/>
<path d="M6.0779 19.3371L0.683213 25.3257L6.76341 32L18.1649 19.3371H6.0779Z" fill="#026AA2"/>
<path d="M6.0779 19.3372L11.6674 13.1268L12.087 12.6629H-2.90644e-06L6.0779 19.3372Z" fill="#0BA5EC"/>
<path d="M6.07792 19.3372H18.1649L12.087 12.6629L11.6675 13.1268L6.07792 19.3372Z" fill="#0086C9"/>
</g>
<path d="M32.9053 23.2752C36.782 23.2752 39.1388 21.3809 39.1388 18.5175C39.1388 16.1166 37.597 14.6188 34.3811 13.8038L32.9274 13.4294C31.4296 13.0329 30.3943 12.6584 30.3943 11.6452C30.3943 10.8082 31.2534 10.2576 32.7952 10.2576C34.4031 10.2576 35.6807 11.0285 36.0111 12.6805L39.0507 11.8875C38.5441 8.89193 35.945 7.284 32.7732 7.284C29.271 7.284 26.8921 9.15624 26.8921 11.8214C26.8921 14.2443 28.3459 15.6981 31.4736 16.5792L32.9053 16.9756C34.7556 17.4822 35.6807 17.8347 35.6807 18.7598C35.6807 19.6849 34.6234 20.3016 32.9053 20.3016C31.0331 20.3016 29.7776 19.1342 29.293 17.4822L26.3415 18.5175C27.2005 21.9316 29.8877 23.2752 32.9053 23.2752Z" fill="#0B4A6F"/>
<path d="M45.3918 23.2752C48.2992 23.2752 50.5019 21.447 50.5019 18.4073V11.5571H47.242V18.2091C47.242 19.751 46.449 20.4118 45.3918 20.4118C44.3345 20.4118 43.5415 19.751 43.5415 18.2091V11.5571H40.2816V18.4073C40.2816 21.447 42.4843 23.2752 45.3918 23.2752Z" fill="#0B4A6F"/>
<path d="M58.6484 11.2488C57.0405 11.2488 55.9612 11.9756 55.2784 12.9888V11.5571H52.0405V26.7554H55.2784V21.5131C55.9612 22.5483 57.0405 23.2752 58.6484 23.2752C61.5779 23.2752 63.7145 20.654 63.7145 17.262C63.7145 13.8699 61.5779 11.2488 58.6484 11.2488ZM57.8114 20.4118C56.2916 20.4118 55.2343 19.3104 55.2343 17.284C55.2343 15.2576 56.2916 14.1342 57.8114 14.1342C59.3312 14.1342 60.3885 15.2576 60.3885 17.284C60.3885 19.3104 59.3312 20.4118 57.8114 20.4118Z" fill="#0B4A6F"/>
<path d="M70.1345 20.5219C68.8349 20.5219 67.9539 19.795 67.7777 17.9888H75.553C75.575 17.7686 75.575 17.4822 75.575 17.262C75.575 13.6937 73.3504 11.2488 70.1125 11.2488C66.7865 11.2488 64.4737 13.7157 64.4737 17.262C64.4737 20.8743 66.8305 23.2752 70.2887 23.2752C72.7116 23.2752 74.738 22.0197 75.575 19.4646L72.8437 18.4955C72.2931 19.9492 71.412 20.5219 70.1345 20.5219ZM70.1125 13.8258C71.1918 13.8258 71.9847 14.4426 72.2931 15.8303H67.8658C68.1521 14.4646 68.901 13.8258 70.1125 13.8258Z" fill="#0B4A6F"/>
<path d="M82.8128 11.2488C81.6674 11.2488 80.6762 11.7774 80.0374 13.0549V11.5571H76.7996V22.9888H80.0374V17.0417C80.0374 15.5219 80.9185 14.7289 82.1079 14.7289H83.3634V11.2488H82.8128Z" fill="#0B4A6F"/>
<path d="M89.4131 27.284C93.6642 27.284 95.5145 25.8303 95.5145 23.6496C95.5145 21.5792 93.6422 20.1915 90.0739 20.1915H89.4131C88.3338 20.1915 86.4836 20.2355 86.4836 19.5747C86.4836 18.8258 87.9594 18.8919 89.1488 18.8919C92.3206 18.8919 94.5012 17.6144 94.5012 15.5219C94.5012 14.6188 94.1488 14.0021 93.466 13.5175C94.2149 13.3633 94.9418 13.1651 95.5585 12.9007L94.6114 10.4778C93.1356 11.2488 91.2634 11.2488 89.3691 11.2488C86.3515 11.2488 84.1488 12.7025 84.1488 15.1474C84.1488 16.3369 84.6774 17.1078 85.5585 17.7025C84.281 18.0769 83.488 18.8699 83.488 20.0593C83.488 21.1386 84.1488 21.8655 85.118 22.306C83.9506 22.7906 83.2898 23.5395 83.2898 24.5747C83.2898 25.9404 84.8977 27.284 89.4131 27.284ZM89.3691 16.469C87.9814 16.469 87.3206 15.9404 87.3206 15.1254C87.3206 14.3104 87.9814 13.7377 89.3691 13.7377C90.7347 13.7377 91.3515 14.3104 91.3515 15.1254C91.3515 15.9404 90.7347 16.469 89.3691 16.469ZM89.3911 24.9712C87.4748 24.9712 86.77 24.6188 86.77 23.98C86.77 23.3413 87.4748 22.9888 89.3911 22.9888C91.3074 22.9888 91.9902 23.3413 91.9902 23.98C91.9902 24.6188 91.3074 24.9712 89.3911 24.9712Z" fill="#0B4A6F"/>
<path d="M102.366 11.2488C101.221 11.2488 100.23 11.7774 99.5911 13.0549V11.5571H96.3532V22.9888H99.5911V17.0417C99.5911 15.5219 100.472 14.7289 101.662 14.7289H102.917V11.2488H102.366Z" fill="#0B4A6F"/>
<path d="M109.033 23.2752C112.492 23.2752 115.025 20.8082 115.025 17.262C115.025 13.7157 112.492 11.2488 109.033 11.2488C105.597 11.2488 103.064 13.7157 103.064 17.262C103.064 20.8082 105.597 23.2752 109.033 23.2752ZM109.033 20.4118C107.536 20.4118 106.412 19.2884 106.412 17.262C106.412 15.2355 107.536 14.1342 109.033 14.1342C110.553 14.1342 111.699 15.2355 111.699 17.262C111.699 19.2884 110.553 20.4118 109.033 20.4118Z" fill="#0B4A6F"/>
<path d="M121.546 22.9888L123.462 16.3589L125.378 22.9888H128.66L132.052 11.5571H128.638L126.92 18.3192L124.938 11.5571H122.03L120.07 18.3633L118.352 11.5571H114.894L118.308 22.9888H121.546Z" fill="#0B4A6F"/>
</g>
<defs>
<clipPath id="clip0_122_8313">
<rect width="132" height="32" fill="white"/>
</clipPath>
<clipPath id="clip1_122_8313">
<rect width="18.3415" height="32" fill="white"/>
</clipPath>
</defs>
</svg>
